<svg class="ui-icon-svg" aria-hidden="true" focusable="false" xmlns="http://www.w3.org/2000/svg" viewBox="0 0 356.109 176.322">
    <defs>
        <style>
            .cls-1,.cls-2,.cls-3,.cls-5{stroke:currentColor;stroke-miterlimit:10}.cls-1,.cls-5{stroke-width:5px}.cls-2,.cls-5{fill:none}.cls-3{stroke-width:2px}
        </style>
    </defs>
    <path d="M190.57 50.021c16.36-2.05 52.25-1.21 66.36 12.05 11.72 11.01 7.64 20.97 18.82 30.69 20.82 18.09 49.92-3.43 67.22 12.55 12.54 11.58 15.74 39.97 0 54.67-13.11 12.25-36.55 12.39-49.29 0-6.5-6.32-13.74-19.33-8.07-30.77 5.32-10.74 17.33-20.46 32.71-7.32" class="cls-5"/>
    <path d="M121.2 100.211c21.3.25 52.1-6.36 69.39 9.61 12.54 11.58 15.74 39.97 0 54.67-13.11 12.25-36.55 12.39-49.29 0-6.5-6.32-13.74-19.33-8.07-30.77 5.32-10.74 17.33-20.46 32.71-7.32" class="cls-5"/>
    <path d="M122.29 100.231H89.72c-7.09 0-12.83 4.99-12.83 11.15v15.45c0 5.29 4.93 9.58 11.02 9.58h26.24" class="cls-5"/>
    <path d="M273.24 136.401h-61.25" class="cls-5"/>
    <path d="M56.97 52.911H0h56.96z" class="cls-2"/>
    <path d="M55.37 69.621H6.77z" class="cls-2"/>
    <path d="M56.37 86.321H15.74z" class="cls-2"/>
    <g transform="translate(-25.54 -117.869)">
        <g>
            <path d="M202.72 137.44h-92.17v80.66" class="cls-5"/>
            <g>
                <path d="M155.49 136.24c3.2.42 6.99-1.38 7.04-3.44.05-2.05-3.67-3.94-6.88-3.6-2.13.23-4.88 1.52-4.92 3.46s2.65 3.3 4.77 3.58z" class="cls-3"/>
                <path d="M162.25 131.3c.53-1.72 1.75-4.53 4.77-7.17 2.88-2.51 9.09-6.37 12.75-4.91 3.46 1.38 2.59 6.72 2.5 7.26-.15.9-1.07 6.55-7.88 8.84-5.99 2.02-11.69-.19-12.38-.46" class="cls-3"/>
                <path d="M150.97 131.34c-.52-1.73-1.72-4.54-4.72-7.19-2.86-2.52-9.05-6.4-12.71-4.95-3.47 1.37-2.63 6.71-2.55 7.26.14.9 1.03 6.55 7.82 8.87 5.97 2.04 11.69-.14 12.38-.42" class="cls-3"/>
            </g>
            <path d="m153.68 216.71.01-76.56h5.89v76.56z" class="cls-1"/>
            <path d="M110.55 178.78h89.03l-1.44-4.83h-87.59z" class="cls-1"/>
        </g>
        <path d="M201.56 134.93v82.88" style="stroke:currentColor;stroke-miterlimit:10;stroke-width:5px;fill:#fff"/>
    </g>
</svg>
