<?xml version="1.0" encoding="UTF-8"?>
<svg id="Shopping" xmlns="http://www.w3.org/2000/svg" viewBox="0 0 1920 1080">
  <defs>
    <style>
      .cls-1 {
        fill: none;
        stroke: #000;
        stroke-miterlimit: 10;
        stroke-width: 5px;
      }
    </style>
  </defs>
  <path class="cls-1" d="M271.21,416.32h128.09c4.15,0,7.29,4.66,6.57,9.74l-9.99,70.51c-.56,3.97-3.33,6.86-6.57,6.86h-103.54c-2.95,0-5.84-.43-7.94-3.66-.88-1.35-1.42-3.02-1.71-4.75l-11.59-70.39c0-4.58,2.99-8.3,6.67-8.3Z"/>
  <path class="cls-1" d="M291.91,516.82c-7.85-1.47-10.23,5.55-10.58,10.63-.52,7.43,7.63,13.46,13.87,12.09,6.24-1.37,10.68-8.85,10.77-13.83.18-11.27-11.63-15.66-12.37-16.12"/>
  <path class="cls-1" d="M390.62,525.67c.18-10.87-11.71-15.1-12.46-15.55"/>
  <path class="cls-1" d="M365.81,527.35c-.53,7.16,7.68,12.98,13.97,11.66,6.29-1.32,10.76-8.53,10.84-13.34"/>
  <path class="cls-1" d="M376.47,517.1c-7.9-1.41-10.3,5.35-10.66,10.25"/>
  <path class="cls-1" d="M240.31,390.87c11.03-11.59,14.35,8.16,1.26,11.32-4.44,1.07-11.44-.13-11.69-8.33-.2-6.31,4.97-11.44,9.41-13.44,7.08-3.19,15.25-.73,19.92,3.22,3.84,3.25,5.29,7.5,6.34,10.6,1.43,4.21,1.54,7.66,1.59,9.84.07,3.21-.4,11.64-2.55,17.58"/>
</svg>