<?xml version="1.0" encoding="UTF-8"?>
<svg id="packed" xmlns="http://www.w3.org/2000/svg" viewBox="0 0 412.28 390.24">
  <defs>
    <style>
      .cls-1, .cls-2, .cls-3 {
        stroke: #000;
        stroke-miterlimit: 10;
      }

      .cls-1, .cls-3 {
        stroke-width: 5px;
      }

      .cls-2 {
        stroke-width: 2px;
      }

      .cls-3 {
        fill: none;
      }
    </style>
  </defs>
  <rect class="cls-3" x="119.05" y="139.89" width="118.46" height="106.38"/>
  <g>
    <path class="cls-2" d="M179.76,138.31c-4.12.55-8.99-1.83-9.05-4.53-.06-2.71,4.71-5.2,8.85-4.75,2.74.3,6.27,2,6.32,4.57s-3.4,4.36-6.12,4.72Z"/>
    <path class="cls-2" d="M171.06,131.8c-.69-2.27-2.25-5.98-6.13-9.46-3.7-3.31-11.69-8.4-16.38-6.47-4.45,1.82-3.33,8.87-3.21,9.58.19,1.18,1.38,8.64,10.13,11.66,7.69,2.66,15.03-.25,15.91-.61"/>
    <path class="cls-2" d="M185.57,131.85c.67-2.28,2.21-5.98,6.07-9.48,3.67-3.33,11.63-8.44,16.34-6.53,4.46,1.81,3.38,8.85,3.28,9.57-.18,1.18-1.32,8.64-10.05,11.7-7.67,2.69-15.03-.19-15.91-.55"/>
  </g>
  <polygon class="cls-1" points="174.49 143.48 174.49 244.46 182.08 244.46 182.07 143.48 174.49 143.48"/>
  <polygon class="cls-1" points="122.92 187.59 235.5 187.59 235.5 193.97 121.07 193.97 122.92 187.59"/>
</svg>