<?xml version="1.0" encoding="UTF-8"?>
<svg id="OTW" xmlns="http://www.w3.org/2000/svg" viewBox="0 0 412.28 410.49">
  <defs>
    <style>
      .cls-1, .cls-2, .cls-3, .cls-4, .cls-5 {
        stroke: #000;
        stroke-miterlimit: 10;
      }

      .cls-1, .cls-4, .cls-5 {
        stroke-width: 5px;
      }

      .cls-2, .cls-5 {
        fill: none;
      }

      .cls-3 {
        stroke-width: 2px;
      }

      .cls-4 {
        fill: #fff;
      }
    </style>
  </defs>
  <path class="cls-5" d="M216.11,167.89c16.36-2.05,52.25-1.21,66.36,12.05,11.72,11.01,7.64,20.97,18.82,30.69,20.82,18.09,49.92-3.43,67.22,12.55,12.54,11.58,15.74,39.97,0,54.67-13.11,12.25-36.55,12.39-49.29,0-6.5-6.32-13.74-19.33-8.07-30.77,5.32-10.74,17.33-20.46,32.71-7.32"/>
  <path class="cls-5" d="M146.74,218.08c21.3.25,52.1-6.36,69.39,9.61,12.54,11.58,15.74,39.97,0,54.67-13.11,12.25-36.55,12.39-49.29,0-6.5-6.32-13.74-19.33-8.07-30.77,5.32-10.74,17.33-20.46,32.71-7.32"/>
  <path class="cls-5" d="M147.83,218.1h-32.57c-7.09,0-12.83,4.99-12.83,11.15v15.45c0,5.29,4.93,9.58,11.02,9.58h26.24"/>
  <line class="cls-5" x1="298.78" y1="254.27" x2="237.53" y2="254.27"/>
  <path class="cls-2" d="M82.51,170.78H25.54s56.96,0,56.96,0Z"/>
  <path class="cls-2" d="M80.91,187.49h-48.6s48.6,0,48.6,0Z"/>
  <path class="cls-2" d="M81.91,204.19h-40.63s40.63,0,40.63,0Z"/>
  <g>
    <g>
      <polyline class="cls-5" points="202.72 137.44 110.55 137.44 110.55 218.1"/>
      <g>
        <path class="cls-3" d="M155.49,136.24c3.2.42,6.99-1.38,7.04-3.44.05-2.05-3.67-3.94-6.88-3.6-2.13.23-4.88,1.52-4.92,3.46s2.65,3.3,4.77,3.58Z"/>
        <path class="cls-3" d="M162.25,131.3c.53-1.72,1.75-4.53,4.77-7.17,2.88-2.51,9.09-6.37,12.75-4.91,3.46,1.38,2.59,6.72,2.5,7.26-.15.9-1.07,6.55-7.88,8.84-5.99,2.02-11.69-.19-12.38-.46"/>
        <path class="cls-3" d="M150.97,131.34c-.52-1.73-1.72-4.54-4.72-7.19-2.86-2.52-9.05-6.4-12.71-4.95-3.47,1.37-2.63,6.71-2.55,7.26.14.9,1.03,6.55,7.82,8.87,5.97,2.04,11.69-.14,12.38-.42"/>
      </g>
      <polygon class="cls-1" points="159.58 140.15 159.58 216.71 153.68 216.71 153.69 140.15 159.58 140.15"/>
      <polygon class="cls-1" points="198.14 173.95 110.55 173.95 110.55 178.78 199.58 178.78 198.14 173.95"/>
    </g>
    <line class="cls-4" x1="201.56" y1="134.93" x2="201.56" y2="217.81"/>
  </g>
</svg>